<svg xmlns="http://www.w3.org/2000/svg" xmlns:xlink="http://www.w3.org/1999/xlink" width="500" zoomAndPan="magnify" viewBox="0 0 375 374.999991" height="500" preserveAspectRatio="xMidYMid meet" version="1.0"><defs><clipPath id="1b60d456d4"><path d="M 114 15.464844 L 366.742188 15.464844 L 366.742188 359.714844 L 114 359.714844 Z M 114 15.464844 " clip-rule="nonzero"/></clipPath><clipPath id="a215fd99b0"><path d="M 8.242188 15.464844 L 171 15.464844 L 171 102 L 8.242188 102 Z M 8.242188 15.464844 " clip-rule="nonzero"/></clipPath><clipPath id="de4e46fc91"><path d="M 114 58 L 324 58 L 324 359.714844 L 114 359.714844 Z M 114 58 " clip-rule="nonzero"/></clipPath><clipPath id="b366c60c57"><path d="M 8.242188 15.464844 L 171 15.464844 L 171 102 L 8.242188 102 Z M 8.242188 15.464844 " clip-rule="nonzero"/></clipPath></defs><g clip-path="url(#1b60d456d4)"><path fill="#545454" d="M 274.058594 257.480469 L 342.136719 359.527344 L 237.6875 359.527344 L 172.128906 261.226562 L 114.808594 175.210938 C 114.808594 175.210938 243.78125 175.210938 243.832031 175.210938 C 263.886719 175.210938 280.695312 158.382812 280.695312 138.347656 C 280.695312 118.011719 264.167969 101.484375 243.832031 101.484375 L 212.804688 101.484375 L 155.484375 15.464844 L 243.832031 15.464844 C 311.722656 15.464844 366.710938 70.457031 366.710938 138.347656 C 366.710938 172.261719 352.945312 202.984375 330.707031 225.222656 C 315.421875 240.503906 294.988281 252.140625 274.058594 257.480469 " fill-opacity="1" fill-rule="evenodd"/></g><g clip-path="url(#a215fd99b0)"><path fill="#545454" d="M 170.089844 101.480469 L 65.632812 101.480469 L 8.285156 15.464844 L 112.75 15.464844 Z M 170.089844 101.480469 " fill-opacity="1" fill-rule="evenodd"/></g><g clip-path="url(#de4e46fc91)"><path fill="#fbb02e" d="M 242.4375 220.949219 L 202.679688 220.949219 L 229.441406 261.183594 L 295.003906 359.527344 L 237.660156 359.527344 L 196.375 297.5 L 114.847656 175.167969 C 114.847656 175.167969 243.777344 175.167969 243.871094 175.167969 C 263.847656 175.167969 280.667969 158.347656 280.667969 138.375 C 280.667969 118.015625 264.132812 101.480469 243.871094 101.480469 L 212.824219 101.480469 L 184.15625 58.472656 L 242.4375 58.472656 C 287.355469 58.472656 323.675781 94.886719 323.675781 139.710938 C 323.675781 184.535156 287.355469 220.949219 242.4375 220.949219 " fill-opacity="1" fill-rule="evenodd"/></g><g clip-path="url(#b366c60c57)"><path fill="#fbb02e" d="M 8.285156 15.464844 L 65.632812 101.480469 L 170.089844 101.480469 L 141.417969 58.472656 L 97.902344 58.472656 C 64.4375 58.472656 32.636719 43.859375 10.851562 18.457031 Z M 8.285156 15.464844 " fill-opacity="1" fill-rule="evenodd"/></g></svg>